<svg width="96" height="137" viewBox="0 0 96 137" fill="none" xmlns="http://www.w3.org/2000/svg">
<g filter="url(#filter0_d)">
<path d="M63.1812 98.113H43.2667C41.8919 98.113 40.7773 99.2276 40.7773 100.602C40.7773 101.977 41.8919 103.092 43.2667 103.092H63.1812C64.556 103.092 65.6706 101.977 65.6706 100.602C65.6703 99.2276 64.556 98.113 63.1812 98.113Z" fill="#455A64"/>
<path d="M63.3723 106.277H43.4579C42.0831 106.277 40.9685 107.391 40.9685 108.766C40.9685 110.141 42.0831 111.256 43.4579 111.256H63.3723C64.7471 111.256 65.8617 110.141 65.8617 108.766C65.8617 107.391 64.7471 106.277 63.3723 106.277Z" fill="#455A64"/>
<path d="M58.1953 114.641H48.2379C46.8631 114.641 45.7485 115.756 45.7485 117.131C45.7485 118.506 46.8631 119.62 48.2379 119.62H58.1953C59.5701 119.62 60.6847 118.506 60.6847 117.131C60.6847 115.756 59.5701 114.641 58.1953 114.641Z" fill="#455A64"/>
<path d="M79.4163 14.2431C72.3217 7.16277 62.6421 3.28878 52.6215 3.51911C32.0207 3.82717 15.5705 20.7768 15.8785 41.3774C16.0386 52.0818 20.7896 62.2013 28.9232 69.1621C29.3514 69.5094 29.6483 69.9922 29.7645 70.5313C31.0191 77.2973 33.9514 93.1342 43.2665 93.1342H63.181C72.511 93.1342 75.543 76.7048 76.6879 70.5213C76.799 69.9883 77.093 69.5108 77.5194 69.1722C93.1669 55.7819 94.9967 32.2422 81.6065 16.5948C80.9103 15.7815 80.1796 14.9983 79.4163 14.2478V14.2431Z" fill="#F9D724" fill-opacity="0.56"/>
</g>
<defs>
<filter id="filter0_d" x="0.874268" y="0.509399" width="94.6907" height="136.111" filterUnits="userSpaceOnUse" color-interpolation-filters="sRGB">
<feFlood flood-opacity="0" result="BackgroundImageFix"/>
<feColorMatrix in="SourceAlpha" type="matrix" values="0 0 0 0 0 0 0 0 0 0 0 0 0 0 0 0 0 0 127 0"/>
<feOffset dx="-5" dy="7"/>
<feGaussianBlur stdDeviation="5"/>
<feColorMatrix type="matrix" values="0 0 0 0 0.3875 0 0 0 0 0.381042 0 0 0 0 0.381042 0 0 0 0.45 0"/>
<feBlend mode="normal" in2="BackgroundImageFix" result="effect1_dropShadow"/>
<feBlend mode="normal" in="SourceGraphic" in2="effect1_dropShadow" result="shape"/>
</filter>
</defs>
</svg>
